# Tiled2Unity generated file. Do not modify by hand.
# Wavefront file for 'Prvi-Level_mesh_0009.obj'

# Vertices (Count = 20)
v -9.599999 -12.8 0
v -9.92 -12.8 0
v -9.92 -12.48 0
v -9.599999 -12.48 0
v -9.599999 -13.12 0
v -9.92 -13.12 0
v -9.92 -12.8 0
v -9.599999 -12.8 0
v -9.599999 -13.44 0
v -9.92 -13.44 0
v -9.92 -13.12 0
v -9.599999 -13.12 0
v -9.599999 -13.76 0
v -9.92 -13.76 0
v -9.92 -13.44 0
v -9.599999 -13.44 0
v -9.599999 -14.08 0
v -9.92 -14.08 0
v -9.92 -13.76 0
v -9.599999 -13.76 0

# Texture cooridinates (Count = 4)
vt 0 0
vt 1 0
vt 1 1
vt 0 1

# Normal
vn 0 0 -1

# Mesh description
g Prvi-Level_mesh_0009

# Faces
f 1/1/1 2/2/1 3/3/1 4/4/1
f 5/1/1 6/2/1 7/3/1 8/4/1
f 9/1/1 10/2/1 11/3/1 12/4/1
f 13/1/1 14/2/1 15/3/1 16/4/1
f 17/1/1 18/2/1 19/3/1 20/4/1

