# Tiled2Unity generated file. Do not modify by hand.
# Wavefront file for 'Prvi-Level_mesh_0011.obj'

# Vertices (Count = 12)
v -10.24 -12.8 0
v -10.56 -12.8 0
v -10.56 -12.48 0
v -10.24 -12.48 0
v -10.56 -12.8 0
v -10.88 -12.8 0
v -10.88 -12.48 0
v -10.56 -12.48 0
v -10.88 -12.8 0
v -11.2 -12.8 0
v -11.2 -12.48 0
v -10.88 -12.48 0

# Texture cooridinates (Count = 4)
vt 0 0
vt 1 0
vt 1 1
vt 0 1

# Normal
vn 0 0 -1

# Mesh description
g Prvi-Level_mesh_0011

# Faces
f 1/1/1 2/2/1 3/3/1 4/4/1
f 5/1/1 6/2/1 7/3/1 8/4/1
f 9/1/1 10/2/1 11/3/1 12/4/1

